<?xml version="1.0" standalone="no"?>
<!DOCTYPE svg PUBLIC "-//W3C//DTD SVG 20010904//EN"
 "http://www.w3.org/TR/2001/REC-SVG-20010904/DTD/svg10.dtd">
<svg version="1.0" xmlns="http://www.w3.org/2000/svg"
 width="706.000000pt" height="594.000000pt" viewBox="0 0 706.000000 594.000000"
 preserveAspectRatio="xMidYMid meet">

<g transform="translate(0.000000,594.000000) scale(0.100000,-0.100000)"
fill="#000000" stroke="none">
<path d="M2325 3981 c-233 -31 -480 -166 -630 -344 -27 -32 -55 -64 -60 -71
-38 -44 -104 -165 -134 -248 -101 -278 -83 -579 51 -837 135 -258 380 -454
659 -526 472 -121 962 103 1190 545 141 271 139 629 -4 919 -43 86 -72 116
-101 105 -23 -9 -20 -48 7 -92 23 -36 73 -159 96 -232 5 -19 15 -78 22 -130
50 -414 -174 -807 -561 -988 -140 -65 -348 -95 -515 -73 -281 37 -566 223
-691 451 -10 19 -21 37 -24 40 -3 3 -18 34 -34 68 -68 153 -96 330 -77 479 37
292 162 512 391 684 58 44 220 126 277 140 18 5 50 14 71 19 103 28 369 21
472 -12 71 -23 185 -71 219 -93 64 -40 90 -41 103 -4 10 26 -23 53 -114 97
-112 54 -131 61 -218 83 -84 22 -299 32 -395 20z"/>
<path d="M3155 3789 c-19 -5 -70 -49 -134 -114 -57 -58 -108 -105 -113 -105
-5 0 -25 10 -46 23 -35 22 -77 42 -132 65 -102 43 -314 56 -431 26 -276 -71
-477 -268 -555 -544 -24 -89 -25 -281 0 -365 53 -182 138 -308 280 -415 222
-166 517 -197 761 -79 164 78 288 202 364 363 102 212 94 461 -21 673 -15 28
-28 55 -28 60 0 4 40 49 88 98 122 126 132 140 132 189 0 91 -77 150 -165 125z
m-700 -171 c3 -13 6 -77 8 -143 l2 -120 80 -6 c110 -8 151 -31 189 -106 38
-75 2 -161 -60 -144 -21 6 -28 13 -26 27 13 88 13 103 -2 132 -9 17 -25 36
-35 42 -52 27 -134 -8 -147 -63 -9 -38 -8 -579 1 -609 10 -30 81 -58 148 -58
71 0 121 24 169 80 19 22 38 40 41 40 13 0 7 -46 -10 -70 -61 -93 -132 -131
-256 -138 -48 -3 -90 -9 -94 -15 -3 -5 -6 -51 -7 -101 l-1 -91 -65 1 c-151 4
-346 109 -451 243 -19 23 -39 48 -44 55 -17 19 -63 118 -86 185 -18 53 -22 88
-22 195 -1 147 8 184 75 323 94 193 336 359 525 362 57 1 63 -1 68 -21z"/>
<path d="M3820 3239 c-74 -43 -110 -128 -118 -275 -8 -163 31 -259 121 -303
78 -38 177 -24 247 34 l42 35 41 -35 c53 -45 109 -49 157 -9 l31 27 28 -27
c31 -30 70 -34 107 -9 23 15 28 15 60 0 19 -10 54 -17 77 -17 35 0 51 7 97 45
30 25 59 44 65 42 5 -2 11 -20 13 -40 4 -43 30 -64 61 -47 18 9 20 24 23 154
3 137 4 146 27 170 29 31 52 33 74 8 14 -15 17 -40 17 -131 0 -115 12 -160 49
-188 24 -19 75 -15 104 7 14 11 29 20 35 20 5 0 17 -9 27 -20 26 -28 80 -26
121 5 40 31 45 31 73 1 41 -43 136 -46 180 -5 33 31 26 41 -24 33 -25 -3 -55
-4 -68 0 -26 6 -63 66 -55 87 3 8 28 22 55 32 68 24 104 64 110 121 5 40 2 48
-25 76 -25 25 -39 30 -77 30 -57 0 -87 -19 -121 -77 -21 -37 -27 -62 -31 -132
-6 -91 -21 -131 -52 -131 -32 0 -41 44 -41 195 0 82 -4 145 -9 145 -5 0 -16 3
-24 6 -8 3 -22 -2 -31 -11 -13 -13 -16 -39 -16 -138 0 -135 -16 -189 -56 -195
-34 -5 -48 44 -41 136 11 138 -24 208 -104 206 -22 -1 -46 -7 -52 -13 -6 -6
-19 -11 -29 -11 -16 0 -18 9 -18 74 0 89 -5 106 -34 106 -43 0 -46 -14 -46
-210 0 -141 -3 -191 -14 -205 -22 -31 -42 -11 -55 57 -21 105 -49 210 -59 220
-15 15 -70 -1 -76 -20 -3 -9 -8 -34 -12 -55 -3 -20 -10 -40 -15 -43 -5 -3 -9
-14 -9 -25 0 -10 -13 -48 -30 -82 -16 -35 -30 -76 -30 -90 0 -48 -64 -60 -75
-13 -3 11 -6 86 -8 166 l-2 145 -30 -2 c-16 -1 -48 -2 -70 -2 -22 0 -52 0 -67
0 -72 0 -126 -87 -135 -216 -5 -73 -10 -89 -31 -110 -28 -29 -75 -40 -138 -32
-107 12 -158 135 -135 328 11 100 45 168 94 192 68 34 107 2 107 -87 0 -53 22
-68 46 -31 12 19 14 33 7 62 -19 82 -148 122 -233 72z m494 -235 c13 -12 16
-39 16 -125 0 -103 -1 -111 -25 -134 -31 -32 -65 -32 -95 0 -44 47 -26 221 28
261 23 18 57 17 76 -2z m1227 -5 c23 -45 -7 -106 -69 -138 -34 -18 -45 -4 -40
49 9 87 79 145 109 89z m-923 -66 c5 -10 15 -50 22 -90 11 -63 11 -75 -3 -96
-21 -33 -52 -39 -79 -17 -20 16 -21 20 -8 35 9 11 15 41 16 74 2 88 29 137 52
94z"/>
<path d="M5177 3222 c-25 -28 -21 -60 8 -74 54 -25 100 36 57 75 -24 22 -45
21 -65 -1z"/>
</g>
</svg>
